{"title":"Ananta Shakti - Gorgeous and skinny teen banged by her dirty coa","uid":9536135,"size":832659199,"categoryP":"porn","categoryS":"movie_clips","magnet":"?xt=urn:btih:c109c5cef57facf56045421eae343a897bf47e7b&amp;dn=Ananta+Shakti+-+Gorgeous+and+skinny+teen+banged+by+her+dirty+coa&amp;tr=udp%3A%2F%2Ftracker.openbittorrent.com%3A80&amp;tr=udp%3A%2F%2Fopen.demonii.com%3A1337&amp;tr=udp%3A%2F%2Ftracker.coppersurfer.tk%3A6969&amp;tr=udp%3A%2F%2Fexodus.desync.com%3A6969","seeders":1,"leechers":1,"uploader":"athklym","files":-1,"time":1390937670,"description":" &lt;a href=&quot;http://bayimg.com/IaHmfAafp&quot; rel=&quot;nofollow&quot; target=&quot;_NEW&quot;&gt;http://bayimg.com/IaHmfAafp&lt;/a&gt;\n\nAnanta Shakti feels always horny when she sees hot and brawny men. Today, she has a private workout with a handsome and dirty couch, so her muff has been already all wet and waiting for his cock. He starts touching her body and the sweet girl loses control. She sucks his hard rod and lets him screw her in different positions. They have wonderful sex, fucking right in the gym. Finally, he releases loads of hot jizz onto her beautiful face.\n\nDirtyCoach_Ananta_Shakti.wmv\nFormat : Windows Media\nFile size : 794 MiB\nDuration : 21mn 24s\nOverall bit rate mode : Constant\nOverall bit rate : 5 187 Kbps\nMaximum Overall bit rate : 5 290 Kbps\nPerformer : Royal-Cash.com\nEncoded date : UTC 2013-09-03 19:58:56.866\nCopyright : Royal-Cash.com\n\nVideo\nID : 2\nFormat : VC-1\nFormat profile : MP@HL\nCodec ID : WMV3\nCodec ID/Info : Windows Media Video 9\nCodec ID/Hint : WMV3\nDescription of the codec : Windows Media Video 9 - Professional\nDuration : 21mn 24s\nBit rate mode : Constant\nBit rate : 5 120 Kbps\nWidth : 1 280 pixels\nHeight : 720 pixels\nDisplay aspect ratio : 16:9\nFrame rate : 25.000 fps\nColor space : YUV\nChroma subsampling : 4:2:0\nBit depth : 8 bits\nScan type : Progressive\nCompression mode : Lossy\nBits/(Pixel*Frame) : 0.222\nStream size : 784 MiB (99%)\nLanguage : Russian\nNumberOfFrames : 32095\n\nAudio\nID : 1\nFormat : WMA\nFormat version : Version 2\nCodec ID : 161\nCodec ID/Info : Windows Media Audio\nDescription of the codec : Windows Media Audio 9.2 - 128 kbps, 44 kHz, stereo 1-pass CBR\nDuration : 21mn 24s\nBit rate mode : Constant\nBit rate : 128 Kbps\nChannel count : 2 channels\nSampling rate : 44.1 KHz\nBit depth : 16 bits\nStream size : 19.6 MiB (2%)\nLanguage : Russian\nNumberOfFrames : 3458","torrent":{"xt":"urn:btih:c109c5cef57facf56045421eae343a897bf47e7b","amp;dn":"Ananta+Shakti+-+Gorgeous+and+skinny+teen+banged+by+her+dirty+coa","amp;tr":["udp%3A%2F%2Ftracker.openbittorrent.com%3A80","udp%3A%2F%2Fopen.demonii.com%3A1337","udp%3A%2F%2Ftracker.coppersurfer.tk%3A6969","udp%3A%2F%2Fexodus.desync.com%3A6969"],"infoHash":"c109c5cef57facf56045421eae343a897bf47e7b","infoHashBuffer":{"type":"Buffer","data":[193,9,197,206,245,127,172,245,96,69,66,30,174,52,58,137,123,244,126,123]},"announce":[],"urlList":[]}}